<?xml version="1.0" encoding="UTF-8" standalone="no"?>
<svg
   xmlns:dc="http://purl.org/dc/elements/1.1/"
   xmlns:cc="http://creativecommons.org/ns#"
   xmlns:rdf="http://www.w3.org/1999/02/22-rdf-syntax-ns#"
   xmlns:svg="http://www.w3.org/2000/svg"
   xmlns="http://www.w3.org/2000/svg"
   xmlns:sodipodi="http://sodipodi.sourceforge.net/DTD/sodipodi-0.dtd"
   xmlns:inkscape="http://www.inkscape.org/namespaces/inkscape"
   version="1.1"
   x="0px"
   y="0px"
   viewBox="0 0 84.999999 84.999999"
   xml:space="preserve"
   id="svg10"
   sodipodi:docname="logo-border.svg"
   inkscape:version="0.92.3 (2405546, 2018-03-11)"
   width="85"
   height="85"
   inkscape:export-xdpi="72.282356"
   inkscape:export-ydpi="72.282356"><metadata
     id="metadata16"><rdf:RDF><cc:Work
         rdf:about=""><dc:format>image/svg+xml</dc:format><dc:type
           rdf:resource="http://purl.org/dc/dcmitype/StillImage" /><dc:title></dc:title></cc:Work></rdf:RDF></metadata><defs
     id="defs14"><filter
       inkscape:label="Tinted Rainbow"
       style="color-interpolation-filters:sRGB"
       inkscape:menu-tooltip="Smooth rainbow colors melted along the edges and colorizable"
       inkscape:menu="Textures"
       height="1.5"
       width="1.5"
       y="-0.25"
       x="-0.25"
       id="filter4309"><feTurbulence
         seed="50"
         type="fractalNoise"
         baseFrequency="1"
         numOctaves="3"
         result="result1"
         id="feTurbulence4291" /><feColorMatrix
         type="luminanceToAlpha"
         in="SourceGraphic"
         result="result0"
         id="feColorMatrix4293" /><feColorMatrix
         result="result2"
         values="1 0 0 0 0 0 1 0 0 0 0 0 1 0 0 0 0 0 0.5 0 "
         id="feColorMatrix4295" /><feComposite
         result="result3"
         operator="over"
         in="result1"
         in2="result2"
         id="feComposite4297" /><feColorMatrix
         result="result91"
         values="1 0 0 0 0 0 1 0 0 0 0 0 1 0 0 0 0 0 5 -3.2"
         id="feColorMatrix4299" /><feComposite
         in2="result91"
         operator="arithmetic"
         k1="1.5"
         result="result93"
         id="feComposite4301"
         k2="0"
         k3="0"
         k4="0" /><feComposite
         in2="result93"
         in="SourceGraphic"
         operator="out"
         result="result4"
         id="feComposite4303" /><feComposite
         in2="result4"
         operator="arithmetic"
         k2="0.5"
         k1="1"
         id="feComposite4305"
         k3="0"
         k4="0" /><feDisplacementMap
         scale="15"
         xChannelSelector="R"
         yChannelSelector="A"
         in2="result1"
         result="fbSourceGraphic"
         id="feDisplacementMap4307" /><feColorMatrix
         result="fbSourceGraphicAlpha"
         in="fbSourceGraphic"
         values="0 0 0 -1 0 0 0 0 -1 0 0 0 0 -1 0 0 0 0 1 0"
         id="feColorMatrix4341" /><feGaussianBlur
         id="feGaussianBlur4343"
         result="result8"
         stdDeviation="5"
         in="fbSourceGraphic" /><feTurbulence
         id="feTurbulence4345"
         baseFrequency="0.015"
         numOctaves="2"
         type="fractalNoise"
         result="result7"
         seed="20" /><feComposite
         in2="result8"
         id="feComposite4347"
         in="fbSourceGraphic"
         operator="in"
         result="result6" /><feComposite
         in2="result7"
         id="feComposite4349"
         in="result6"
         operator="arithmetic"
         result="result2"
         k3="1.7"
         k1="0"
         k2="0"
         k4="0" /><feComposite
         in2="result6"
         id="feComposite4351"
         operator="in"
         in="result2"
         result="fbSourceGraphic" /><feComposite
         in2="fbSourceGraphic"
         id="feComposite4353"
         in="fbSourceGraphic"
         k3="0.3"
         k2="1.5"
         operator="arithmetic"
         result="result9"
         k1="0"
         k4="0" /></filter></defs><sodipodi:namedview
     pagecolor="#ffffff"
     bordercolor="#666666"
     borderopacity="1"
     objecttolerance="10"
     gridtolerance="10"
     guidetolerance="10"
     inkscape:pageopacity="1"
     inkscape:pageshadow="2"
     inkscape:window-width="1869"
     inkscape:window-height="1053"
     id="namedview12"
     showgrid="false"
     inkscape:zoom="6.675088"
     inkscape:cx="40.397832"
     inkscape:cy="38.317814"
     inkscape:window-x="51"
     inkscape:window-y="27"
     inkscape:window-maximized="1"
     inkscape:current-layer="g4386"
     fit-margin-top="0"
     fit-margin-left="0"
     fit-margin-right="0"
     fit-margin-bottom="0"><sodipodi:guide
       position="0,0"
       orientation="0,85"
       id="guide4388"
       inkscape:locked="false" /><sodipodi:guide
       position="84.999999,0"
       orientation="-85,0"
       id="guide4390"
       inkscape:locked="false" /><sodipodi:guide
       position="84.999999,84.999999"
       orientation="0,-85"
       id="guide4392"
       inkscape:locked="false" /><sodipodi:guide
       position="0,84.999999"
       orientation="85,0"
       id="guide4394"
       inkscape:locked="false" /></sodipodi:namedview><g
     id="g4386"
     transform="translate(0.89375,-0.893748)"><circle
       style="fill:#ffffff;fill-opacity:1;stroke:#000000;stroke-width:0.85000002;stroke-miterlimit:4;stroke-dasharray:none;stroke-opacity:1"
       id="path4574"
       cx="41.606251"
       cy="43.393749"
       r="37.902122" /><path
       transform="matrix(0.85,0,0,0.85,-0.89375,0.893748)"
       style=""
       d="M 50,3.25 C 24.22,3.25 3.25,24.22 3.25,50 3.25,75.78 24.22,96.75 50,96.75 75.78,96.75 96.75,75.78 96.75,50 96.75,24.22 75.78,3.25 50,3.25 Z m 0,88.5 C 26.98,91.75 8.25,73.02 8.25,50 8.25,26.98 26.98,8.25 50,8.25 73.02,8.25 91.75,26.98 91.75,50 91.75,73.02 73.02,91.75 50,91.75 Z"
       id="path2"
       inkscape:connector-curvature="0" /><path
       d="m 41.60625,28.153748 c 4.53,0 8.22,-3.69 8.22,-8.22 0,-4.53 -3.69,-8.22 -8.22,-8.22 -4.53,0 -8.22,3.69 -8.22,8.22 0,4.53 3.69,8.22 8.22,8.22 z m 0,-13.43 c 2.88,0 5.22,2.34 5.22,5.22 0,2.88 -2.34,5.22 -5.22,5.22 -2.88,0 -5.22,-2.34 -5.22,-5.22 0,-2.88 2.34,-5.22 5.22,-5.22 z"
       id="path4"
       inkscape:connector-curvature="0" /><path
       d="m 60.891782,27.713748 c -0.23,0 -0.46,0.02 -0.69,0.05 l -14.42,2.03 h -8.34 l -14.43,-2.03 c -0.23,-0.03 -0.46,-0.05 -0.69,-0.05 -2.69,0 -5.03,2.2 -5.44,5.12 -0.45,3.21 1.57,6.16 4.5,6.57 l 12.57,1.77 v 6.360001 l -7.94,19.159999 c -0.6,1.45 -0.6,3.05 0,4.5 0.6,1.45 1.73,2.58 3.18,3.18 0.72,0.3 1.47,0.45 2.24,0.45 2.39,0 4.53,-1.42 5.44,-3.63 l 4.74,-11.43 4.73,11.43 c 0.91,2.2 3.05,3.63 5.44,3.63 0.77,0 1.53,-0.15 2.24,-0.45 2.99,-1.24 4.42,-4.69 3.18,-7.68 l -7.94,-19.17 v -6.36 l 12.57,-1.77 c 1.51,-0.21 2.85,-1.11 3.68,-2.48 0.73,-1.19 1.02,-2.65 0.82,-4.09 -0.4,-2.9 -2.74,-5.11 -5.44,-5.11 z m 0.53,8.72 -15.15,2.13 v 9.56 l 8.17,19.72 c 0.61,1.46 -0.1,3.16 -1.56,3.76 -0.36,0.15 -0.73,0.22 -1.09,0.22 -1.13,0 -2.21,-0.67 -2.67,-1.78 l -7.51,-18.12 -7.51,18.12 c -0.46,1.11 -1.54,1.78 -2.67,1.78 -0.37,0 -0.74,-0.07 -1.09,-0.22 -1.46,-0.61 -2.16,-2.3 -1.56,-3.76 l 8.17,-19.72 v -9.56 l -15.15,-2.13 c -1.29,-0.18 -2.16,-1.61 -1.94,-3.18 0.2,-1.46 1.29,-2.54 2.47,-2.54 0.09,0 0.18,0.01 0.27,0.02 l 14.63,2.06 h 8.76 l 14.63,-2.06 c 0.09,-0.01 0.18,-0.02 0.27,-0.02 1.19,0 2.27,1.08 2.47,2.54 0.23,1.57 -0.65,3 -1.94,3.18 z"
       id="path6"
       inkscape:connector-curvature="0" /></g></svg>
