<?xml version="1.0" encoding="UTF-8" standalone="no"?>
<svg
   xmlns:dc="http://purl.org/dc/elements/1.1/"
   xmlns:cc="http://creativecommons.org/ns#"
   xmlns:rdf="http://www.w3.org/1999/02/22-rdf-syntax-ns#"
   xmlns:svg="http://www.w3.org/2000/svg"
   xmlns="http://www.w3.org/2000/svg"
   xmlns:sodipodi="http://sodipodi.sourceforge.net/DTD/sodipodi-0.dtd"
   xmlns:inkscape="http://www.inkscape.org/namespaces/inkscape"
   version="1.1"
   x="0px"
   y="0px"
   viewBox="0 0 63.109999 63.11"
   xml:space="preserve"
   id="svg10"
   sodipodi:docname="logo.svg"
   inkscape:version="0.92.3 (2405546, 2018-03-11)"
   width="63.110001"
   height="63.110001"
   inkscape:export-filename="/home/skeletonxf/Documents/Sheffield/Dissertation/totally/addon/icons/logo-64.svg.png"
   inkscape:export-xdpi="72.282356"
   inkscape:export-ydpi="72.282356"><metadata
     id="metadata16"><rdf:RDF><cc:Work
         rdf:about=""><dc:format>image/svg+xml</dc:format><dc:type
           rdf:resource="http://purl.org/dc/dcmitype/StillImage" /><dc:title /></cc:Work></rdf:RDF></metadata><defs
     id="defs14"></defs><sodipodi:namedview
     pagecolor="#ffffff"
     bordercolor="#666666"
     borderopacity="1"
     objecttolerance="10"
     gridtolerance="10"
     guidetolerance="10"
     inkscape:pageopacity="1"
     inkscape:pageshadow="2"
     inkscape:window-width="1869"
     inkscape:window-height="1053"
     id="namedview12"
     showgrid="false"
     inkscape:zoom="6.675088"
     inkscape:cx="-8.4404757"
     inkscape:cy="38.317814"
     inkscape:window-x="51"
     inkscape:window-y="27"
     inkscape:window-maximized="1"
     inkscape:current-layer="g4386"
     fit-margin-top="0"
     fit-margin-left="0"
     fit-margin-right="0"
     fit-margin-bottom="0"><sodipodi:guide
       position="-17.712811,-11.070001"
       orientation="0,85"
       id="guide4388"
       inkscape:locked="false" /><sodipodi:guide
       position="67.287188,-11.070001"
       orientation="-85,0"
       id="guide4390"
       inkscape:locked="false" /><sodipodi:guide
       position="67.287188,73.929998"
       orientation="0,-85"
       id="guide4392"
       inkscape:locked="false" /><sodipodi:guide
       position="-17.712811,73.929998"
       orientation="85,0"
       id="guide4394"
       inkscape:locked="false" /></sodipodi:namedview><g
     id="g4386"
     transform="translate(-10.051249,-11.71375)"><path
       d="m 41.60625,28.153748 c 4.53,0 8.22,-3.69 8.22,-8.22 0,-4.53 -3.69,-8.22 -8.22,-8.22 -4.53,0 -8.22,3.69 -8.22,8.22 0,4.53 3.69,8.22 8.22,8.22 z m 0,-13.43 c 2.88,0 5.22,2.34 5.22,5.22 0,2.88 -2.34,5.22 -5.22,5.22 -2.88,0 -5.22,-2.34 -5.22,-5.22 0,-2.88 2.34,-5.22 5.22,-5.22 z"
       id="path4"
       inkscape:connector-curvature="0"
       style="stroke-width:0.1;stroke-miterlimit:4;stroke-dasharray:none;" /><path
       d="m 60.891782,27.713748 c -0.23,0 -0.46,0.02 -0.69,0.05 l -14.42,2.03 h -8.34 l -14.43,-2.03 c -0.23,-0.03 -0.46,-0.05 -0.69,-0.05 -2.69,0 -5.03,2.2 -5.44,5.12 -0.45,3.21 1.57,6.16 4.5,6.57 l 12.57,1.77 v 6.360001 l -7.94,19.159999 c -0.6,1.45 -0.6,3.05 0,4.5 0.6,1.45 1.73,2.58 3.18,3.18 0.72,0.3 1.47,0.45 2.24,0.45 2.39,0 4.53,-1.42 5.44,-3.63 l 4.74,-11.43 4.73,11.43 c 0.91,2.2 3.05,3.63 5.44,3.63 0.77,0 1.53,-0.15 2.24,-0.45 2.99,-1.24 4.42,-4.69 3.18,-7.68 l -7.94,-19.17 v -6.36 l 12.57,-1.77 c 1.51,-0.21 2.85,-1.11 3.68,-2.48 0.73,-1.19 1.02,-2.65 0.82,-4.09 -0.4,-2.9 -2.74,-5.11 -5.44,-5.11 z m 0.53,8.72 -15.15,2.13 v 9.56 l 8.17,19.72 c 0.61,1.46 -0.1,3.16 -1.56,3.76 -0.36,0.15 -0.73,0.22 -1.09,0.22 -1.13,0 -2.21,-0.67 -2.67,-1.78 l -7.51,-18.12 -7.51,18.12 c -0.46,1.11 -1.54,1.78 -2.67,1.78 -0.37,0 -0.74,-0.07 -1.09,-0.22 -1.46,-0.61 -2.16,-2.3 -1.56,-3.76 l 8.17,-19.72 v -9.56 l -15.15,-2.13 c -1.29,-0.18 -2.16,-1.61 -1.94,-3.18 0.2,-1.46 1.29,-2.54 2.47,-2.54 0.09,0 0.18,0.01 0.27,0.02 l 14.63,2.06 h 8.76 l 14.63,-2.06 c 0.09,-0.01 0.18,-0.02 0.27,-0.02 1.19,0 2.27,1.08 2.47,2.54 0.23,1.57 -0.65,3 -1.94,3.18 z"
       id="path6"
       inkscape:connector-curvature="0"
       style="stroke-width:0.1;stroke-miterlimit:4;stroke-dasharray:none;" /><path
       style="fill:#ffffff;fill-opacity:1;stroke:#000000;stroke-width:0.12733915;stroke-miterlimit:4;stroke-dasharray:none;stroke-opacity:1;"
       d="M 19.884803,59.538526 C 19.0503,59.0093 18.633735,58.224613 18.641367,57.196254 c 0.0047,-0.634157 0.641967,-2.278623 4.154508,-10.720806 l 4.148951,-9.971753 v -4.868366 -4.868366 l -2.35952,-0.320727 c -9.24547,-1.256724 -13.171398,-1.864884 -13.58032,-2.103707 -0.925465,-0.540501 -1.3552071,-2.015193 -0.980473,-3.364568 0.213531,-0.768899 1.131125,-1.706134 1.790783,-1.829114 0.332202,-0.06193 3.253056,0.288344 8.006922,0.96021 l 7.483941,1.057709 4.201299,0.0043 4.201297,0.0043 7.699524,-1.078635 7.699523,-1.078634 0.660966,0.350642 c 1.141034,0.605316 1.754758,2.102287 1.400801,3.416779 -0.202838,0.753284 -0.939363,1.641993 -1.471502,1.775552 -0.209873,0.05267 -3.792202,0.575726 -7.960733,1.162337 l -7.579146,1.066566 -0.03953,4.730957 -0.03953,4.730958 4.196775,10.134358 c 4.385016,10.588924 4.452544,10.787727 4.037433,11.886408 -0.1952,0.516642 -0.82561,1.200017 -1.368779,1.483783 -0.91093,0.475892 -2.594247,0.138095 -3.322024,-0.666642 -0.154504,-0.170841 -1.99449,-4.441565 -4.08886,-9.490496 -2.094367,-5.048933 -3.861352,-9.233287 -3.926632,-9.298567 -0.06528,-0.06528 -1.798279,3.940154 -3.851111,8.90096 -2.052831,4.960805 -3.89514,9.271554 -4.094019,9.579442 -0.798593,1.236314 -2.487836,1.575054 -3.777115,0.757417 z"
       id="path967"
       inkscape:connector-curvature="0"
       transform="translate(10.051249,11.71375)" /><path
       style="fill:#ffffff;fill-opacity:1;stroke:#000000;stroke-width:0.12733915;stroke-miterlimit:4;stroke-dasharray:none;stroke-opacity:1;"
       d="m 30.133703,13.168239 c -2.296258,-0.750265 -3.7125,-2.687535 -3.680847,-5.0350088 0.03175,-2.3542536 1.584761,-4.285918 3.922728,-4.8791473 2.285002,-0.5797899 4.686363,0.5552477 5.79224,2.7377839 0.389923,0.7695433 0.43971,1.0208699 0.439039,2.2162688 -5.99e-4,1.0666249 -0.0688,1.4959313 -0.326479,2.0549884 -0.452779,0.982359 -1.579351,2.135897 -2.549537,2.610565 -0.985333,0.482079 -2.61482,0.615508 -3.597144,0.29455 z"
       id="path969"
       inkscape:connector-curvature="0"
       transform="translate(10.051249,11.71375)" /></g></svg>
